<?xml version="1.0" encoding="UTF-8"?>
<svg id="Capa_1" data-name="Capa 1" xmlns="http://www.w3.org/2000/svg" viewBox="0 0 144.56 56.67">
  <defs>
    <style>
      .cls-1 {
        fill: #1d1d1b;
        stroke-width: 0px;
      }
    </style>
  </defs>
  <path class="cls-1" d="m142.26,28.83c-.69,2.3-8.27,20.42-12.32,20.42-.37,0-1.11,0-1.11-2.41,0-9.84,7.24-24.38,9.46-26.61.37-.46.74-.19.74-.74,0-1.39-3.62-4.08-8.72-4.08-.74,0-1.58.65-2.51,1.86-1.95-3.53-4.92-5.57-10.39-5.57-8.75,0-14.59,9.07-17.66,18.31-3.86,7.12-9.75,19.24-12.31,19.24-.37,0-1.11-.09-1.11-2.41,0-7.98,6.31-26.51,9.56-29.76.28-.28.74-.09.74-.84,0-2.88-10.21-3.25-16.52-3.8C80.73,7.13,78.38.06,76.71,0c-3.47-.12-5.79,3.05-6.03,6.59-.59,8.52,2.52,9.31,3.54,9.34-2.06,6.33-5.2,14.09-9.02,20.96-4.3,6.7-9.54,13.38-14.72,13.38-2.88,0-4.55-3.9-3.99-9,.09-1.3.37-2.11.56-3.32,1.02.46,2.23.74,3.15.74,8.17,0,14.01-5.75,14.94-13.73.74-5.85-2.69-13.27-9.56-13.27-8.07,0-14.7,9.91-17.8,19.62-.1-.3-.19-.53-.19-.53,0,0-3.02-3.04-4.57-7.12,1.54-3.74,2.56-6.9,2.79-8.82.28-2.97-6.31-5.29-6.5-4.08-.09.84-3.06,10.58-9.37,23.48-4.18,8.63-8.35,15.01-9.56,15.01-1.02,0-1.48-1.95-1.11-5.01,1.39-12.34,9.56-28.93,9.65-29.3.09-1.3-8.63-3.53-10.11-2.23C5.66,15.59,0,32.18,0,43.5c0,5.75,1.76,12.71,8.44,12.71,7.01,0,17.27-16.38,23.05-29.01.9,1.46,1.96,2.86,3.2,4.02,1.25,1.17,2.05,1.72,2.56,1.9-.87,3.17-1.34,6.26-1.34,8.89,0,8.63,5.2,14.66,14.01,14.66,8.18,0,15.38-10.62,19.84-19.86,2.82-4.9,4.76-9.11,8.69-19.83,2.13.56,4.64.93,4.45,1.86-1.11,2.04-6.5,16.58-6.5,25.21s3.9,12.16,9,12.16c4,0,8.36-5.93,11.79-12.63,0,.19,0,.38,0,.56,0,8.26,3.9,12.06,9,12.06,4.18,0,9-6.66,12.8-14.36-.09.93-.09,1.46-.09,2.29,0,8.26,3.9,12.06,9,12.06,9.28,0,16.54-20.95,16.66-24.51.06-1.84-1.84-4.4-2.3-2.87Zm-93.65,3.55c3.06-7.7,8.17-13.45,10.95-13.45.84,0,1.11,1.21.93,2.69-.74,6.03-9.65,13.45-12.8,13.55l.93-2.78Zm59.62,16.86c-.93,0-1.11-1.76-1.11-3.25,0-9.09,8.63-29.3,14.48-29.11,1.48,0,3.15,2.6,3.34,5.1-5.01,9.09-13.83,27.25-16.7,27.25Z"/>
</svg>